<?xml version="1.0" encoding="UTF-8" standalone="no"?>
<!-- Created with Inkscape (http://www.inkscape.org/) -->

<svg
   xmlns:dc="http://purl.org/dc/elements/1.1/"
   xmlns:cc="http://creativecommons.org/ns#"
   xmlns:rdf="http://www.w3.org/1999/02/22-rdf-syntax-ns#"
   xmlns:svg="http://www.w3.org/2000/svg"
   xmlns="http://www.w3.org/2000/svg"
   xmlns:sodipodi="http://sodipodi.sourceforge.net/DTD/sodipodi-0.dtd"
   xmlns:inkscape="http://www.inkscape.org/namespaces/inkscape"
   width="30.013908mm"
   height="19.12232mm"
   viewBox="0 0 30.013908 19.12232"
   version="1.1"
   id="svg8"
   inkscape:version="0.92.3 (2405546, 2018-03-11)"
   sodipodi:docname="boat.svg">
  <defs
     id="defs2">
    <clipPath
       clipPathUnits="userSpaceOnUse"
       id="clipPath132">
      <path
         d="m 2352.13,837.359 -39.32,39.332 h 0.08 l 39.33,-39.332 h -0.09"
         id="path130"
         inkscape:connector-curvature="0" />
    </clipPath>
    <clipPath
       clipPathUnits="userSpaceOnUse"
       id="clipPath310">
      <path
         d="m 3515.23,178.719 c -52.42,21.992 -94.37,63.98 -116.32,116.422 l 43.99,18.39 c 19.01,-45.429 57.27,-80.812 104.59,-95.929 -4.71,1.5 -9.32,3.199 -13.83,5.089 l -18.43,-43.972 m 167.69,0 -18.42,43.972 c -1.75,-0.73 -3.51,-1.429 -5.28,-2.101 45.57,17.32 81.71,53.769 98.63,99.531 -0.84,-2.262 -1.72,-4.5 -2.65,-6.723 l 43.97,-18.429 c -21.97,-52.36 -63.89,-94.278 -116.25,-116.25 m -83.84,30.871 c -0.09,0 -0.19,0 -0.28,0 0.09,0 0.19,0 0.28,0 m 0,0 c 0.09,0 0.18,0 0.27,0 -0.09,0 -0.18,0 -0.27,0 m -0.32,0 c -0.07,0 -0.15,0 -0.23,0 0.08,0 0.15,0 0.23,0 m 0.64,0 c 0.07,0 0.15,0 0.22,0 -0.07,0 -0.15,0 -0.22,0 m -0.94,0 c -0.16,0 -0.31,0 -0.47,0 0.16,0 0.31,0 0.47,0 m 1.24,0 c 0.16,0 0.31,0 0.47,0 -0.16,0 -0.32,0 -0.47,0 m -1.81,0 c -0.06,0 -0.12,0 -0.18,0 0.06,0 0.12,0 0.18,0 m 2.38,0 c 0.06,0 0.12,0 0.17,0 -0.05,0 -0.11,0 -0.17,0 m -2.66,0 c -0.05,0 -0.11,0 -0.16,0.012 0.05,0 0.11,-0.012 0.16,-0.012 m 2.98,0 c 0.04,0 0.08,0.012 0.12,0.012 -0.04,0 -0.08,-0.012 -0.12,-0.012 m -3.37,0.012 c -0.02,0 -0.03,0 -0.05,0 0.02,0 0.04,0 0.05,0 m 3.75,0 h 0.01 c -0.01,0 -0.01,0 -0.01,0 m -4.02,0 c -0.02,0 -0.03,0 -0.05,0 0.01,0 0.04,0 0.05,0 m 4.29,0 h 0.01 -0.01 m -4.6,0.007 c 0,0 0,0 -0.01,0 0.01,0 0.01,0 0.01,0 m -0.26,0 c -0.01,0 -0.01,0 -0.02,0 0.01,0 0.01,0 0.02,0 m -0.26,0 c -0.01,0 -0.02,0 -0.03,0 0.01,0 0.02,0 0.03,0 m -0.3,0.012 v 0 0 m -0.26,0 h -0.01 c 0.01,0 0.01,0 0.01,0 m -0.26,0.008 c -0.01,0 -0.01,0 -0.02,0 0.01,0 0.01,0 0.02,0 m -0.29,0.012 v 0 0 m -46.88,7.75 c -0.01,0 -0.01,0 -0.01,0 h 0.01 m -0.22,0.07 c -0.03,0.008 -0.04,0.019 -0.07,0.019 0.02,0 0.05,-0.011 0.07,-0.019 m -0.21,0.07 c -0.05,0.008 -0.1,0.028 -0.15,0.051 0.05,-0.023 0.1,-0.031 0.15,-0.051 m 111.31,2.981 c 0.03,0.008 0.06,0.019 0.1,0.027 -0.03,-0.008 -0.07,-0.019 -0.1,-0.027 m -229.11,154.25 c 0,0 0,0 0,0.008 0,-0.008 0,-0.008 0,-0.008 m -0.01,0.269 v 0 0 m -0.01,0.27 c 0,0.008 0,0.019 0,0.031 0,-0.012 0,-0.023 0,-0.031 m 0,0.269 c 0,0.012 0,0.02 0,0.032 0,-0.012 0,-0.02 0,-0.032 m -0.01,0.262 c 0,0.027 0,0.047 0,0.066 0,-0.019 0,-0.046 0,-0.066 m 0,0.27 c 0,0.019 0,0.039 0,0.058 0,-0.019 0,-0.039 0,-0.058 m 0,0.269 c 0,0.027 0,0.051 -0.01,0.078 0.01,-0.027 0.01,-0.051 0.01,-0.078 m -0.01,0.27 c 0,0.031 0,0.058 0,0.089 0,-0.031 0,-0.058 0,-0.089 m 0,0.269 c 0,0.031 0,0.059 0,0.09 0,-0.031 0,-0.059 0,-0.09 m 0,0.281 c 0,0.008 0,0.02 0,0.028 0,-0.008 0,-0.02 0,-0.028 m -0.01,0.27 c 0,0.019 0,0.051 0,0.07 0,-0.019 0,-0.051 0,-0.07 m 0,0.269 c 0,0.04 0,0.079 0,0.129 0,-0.05 0,-0.089 0,-0.129 m 0,0.27 c 0,0.059 0,0.121 0,0.18 0,-0.071 0,-0.121 0,-0.18 m 0,0.27 c 0,0.179 0,0.359 0,0.55 0,-0.191 0,-0.371 0,-0.55"
         id="path308"
         inkscape:connector-curvature="0" />
    </clipPath>
    <clipPath
       clipPathUnits="userSpaceOnUse"
       id="clipPath1030">
      <path
         d="m 2431.23,1628.01 45.28,91.68 17.91,9.94 21.13,-10.51 -44,-89.3 -40.32,-1.81"
         id="path1028"
         inkscape:connector-curvature="0" />
    </clipPath>
  </defs>
  <sodipodi:namedview
     id="base"
     pagecolor="#ffffff"
     bordercolor="#666666"
     borderopacity="1.0"
     inkscape:pageopacity="0"
     inkscape:pageshadow="2"
     inkscape:zoom="0.49497475"
     inkscape:cx="435.21458"
     inkscape:cy="-282.25726"
     inkscape:document-units="mm"
     inkscape:current-layer="layer1"
     showgrid="false"
     fit-margin-top="0"
     fit-margin-left="0"
     fit-margin-right="0"
     fit-margin-bottom="0"
     inkscape:window-width="1920"
     inkscape:window-height="1013"
     inkscape:window-x="-9"
     inkscape:window-y="-9"
     inkscape:window-maximized="1"
     inkscape:pagecheckerboard="true" />
  <metadata
     id="metadata5">
    <rdf:RDF>
      <cc:Work
         rdf:about="">
        <dc:format>image/svg+xml</dc:format>
        <dc:type
           rdf:resource="http://purl.org/dc/dcmitype/StillImage" />
        <dc:title></dc:title>
      </cc:Work>
    </rdf:RDF>
  </metadata>
  <g
     inkscape:label="Layer 1"
     inkscape:groupmode="layer"
     id="layer1"
     transform="translate(-10.604847,-17.293075)">
    <g
       id="g6406"
       transform="translate(-117.86586,-37.685003)">
      <path
         inkscape:connector-curvature="0"
         id="path74"
         style="fill:#bcbcbc;fill-opacity:1;fill-rule:nonzero;stroke:none;stroke-width:0.03527778"
         d="m 141.96656,61.703434 c 0.091,-0.216606 -0.0162,-0.3937 -0.23778,-0.3937 h -10.20445 c -0.22119,0 -0.40216,0.194028 -0.40216,0.431447 v 7.982304 c 0,0.237419 0.18027,0.415219 0.40075,0.395816 l 14.06419,-1.258711 c 0.22084,-0.01976 0.40111,-0.230364 0.40111,-0.467431 v -0.459316 c 0,-0.237067 -0.17286,-0.48895 -0.38452,-0.559506 l -2.09797,-0.699205 c -0.21132,-0.07056 -0.55669,-0.188737 -0.7673,-0.26282 l -2.01083,-0.706614 c -0.21061,-0.07408 -0.30833,-0.311503 -0.21731,-0.528108 l 1.45627,-3.474156" />
      <path
         inkscape:connector-curvature="0"
         id="path76"
         style="fill:#424242;fill-opacity:1;fill-rule:nonzero;stroke:none;stroke-width:0.03527778"
         d="m 133.63606,65.286598 h -0.11148 c -0.85972,0 -1.5628,-0.703086 -1.5628,-1.562806 v -0.11183 c 0,-0.859367 0.70308,-1.562453 1.5628,-1.562453 h 0.11148 c 0.85937,0 1.56281,0.703086 1.56281,1.562453 v 0.11183 c 0,0.85972 -0.70344,1.562806 -1.56281,1.562806" />
      <path
         inkscape:connector-curvature="0"
         id="path78"
         style="fill:#424242;fill-opacity:1;fill-rule:nonzero;stroke:none;stroke-width:0.03527778"
         d="m 139.81496,64.913359 c -0.0829,0.205317 -0.33231,0.373239 -0.55386,0.373239 h -3.02648 c -0.22119,0 -0.40252,-0.181328 -0.40252,-0.402872 v -2.431697 c 0,-0.221545 0.18133,-0.40252 0.40252,-0.40252 h 4.34023 c 0.22119,0 0.33478,0.167922 0.25118,0.373239 l -1.01107,2.490611" />
      <path
         inkscape:connector-curvature="0"
         id="path80"
         style="fill:#c9c9c9;fill-opacity:1;fill-rule:nonzero;stroke:none;stroke-width:0.03527778"
         d="m 138.74569,62.049509 h -0.82408 l 0.002,-0.0063 h 0.82408 l -0.002,0.0063" />
      <path
         inkscape:connector-curvature="0"
         id="path82"
         style="fill:#686868;fill-opacity:1;fill-rule:nonzero;stroke:none;stroke-width:0.03527778"
         d="m 137.44994,65.286598 h -0.82409 l 1.29576,-3.237089 h 0.82408 l -1.29575,3.237089" />
      <path
         inkscape:connector-curvature="0"
         id="path84"
         style="fill:#c9c9c9;fill-opacity:1;fill-rule:nonzero;stroke:none;stroke-width:0.03527778"
         d="m 133.35172,65.277073 c 0,0 -0.008,-7.05e-4 -0.0219,-0.0028 0.007,0.0011 0.0145,0.0018 0.0219,0.0028 v 0 m 1.17899,-2.944283 c -0.0459,-0.0321 -0.0935,-0.06209 -0.14253,-0.08925 0.0924,0.0508 0.14253,0.0889 0.14253,0.0889 v 0 m -0.20638,-0.122414 c -0.0603,-0.02963 -0.12241,-0.05574 -0.18662,-0.07761 0.0145,0.0046 0.0847,0.02716 0.18662,0.07761" />
      <path
         inkscape:connector-curvature="0"
         id="path86"
         style="fill:#686868;fill-opacity:1;fill-rule:nonzero;stroke:none;stroke-width:0.03527778"
         d="m 133.35172,65.277073 c -0.007,-0.0011 -0.0145,-0.0018 -0.0219,-0.0028 -0.0374,-0.0049 -0.11818,-0.01693 -0.20214,-0.03916 -0.11501,-0.02999 -0.20708,-0.07056 -0.20708,-0.07056 l 1.21426,-3.032831 c 0,0 7e-4,0 0.003,7.06e-4 0.0642,0.02187 0.1263,0.04798 0.18662,0.07761 0.005,0.0025 0.0102,0.0053 0.0155,0.0078 0.0173,0.0088 0.0335,0.01764 0.0483,0.02575 0.049,0.02716 0.0967,0.05715 0.14253,0.08925 l -1.17899,2.944283" />
      <path
         inkscape:connector-curvature="0"
         id="path88"
         style="fill:#e97f02;fill-opacity:1;fill-rule:nonzero;stroke:none;stroke-width:0.03527778"
         d="m 142.01136,60.729767 h -10.88919 v 1.187803 h 10.88919 v -1.187803" />
      <path
         inkscape:connector-curvature="0"
         id="path90"
         style="fill:#ff9429;fill-opacity:1;fill-rule:nonzero;stroke:none;stroke-width:0.03527778"
         d="m 142.01136,60.397803 h -10.88919 v 0.343606 h 10.88919 v -0.343606" />
      <path
         inkscape:connector-curvature="0"
         id="path92"
         style="fill:#666666;fill-opacity:1;fill-rule:nonzero;stroke:none;stroke-width:0.03527778"
         d="m 148.2834,63.668054 h -17.70557 c -0.0914,0 -0.16616,0.07444 -0.16616,0.165805 0,0.09102 0.0748,0.165806 0.16616,0.165806 h 0.29386 v 5.694186 h 0.44768 v -5.694186 h 5.16184 v 5.189361 h 0.44803 v -5.189361 h 5.16185 v 4.684536 h 0.44838 v -4.684536 h 5.16184 v 4.179711 h 0.44768 v -4.179711 h 0.13441 c 0.091,0 0.1658,-0.07479 0.1658,-0.165806 0,-0.09137 -0.0748,-0.165805 -0.1658,-0.165805" />
      <path
         inkscape:connector-curvature="0"
         id="path94"
         style="fill:#556270;fill-opacity:1;fill-rule:nonzero;stroke:none;stroke-width:0.03527778"
         d="m 128.48374,70.26394 c -0.0194,0.09948 -0.018,0.206375 0.01,0.3175 l 0.68615,2.737556 c 0.10725,0.429683 0.5581,0.781403 1.00119,0.781403 H 155.102 c 0.44309,0 0.94404,-0.334786 1.11302,-0.744361 l 2.21297,-5.353756 c 0.0423,-0.102306 0.06,-0.197556 0.0561,-0.283281 l -30.00023,2.544939" />
      <path
         inkscape:connector-curvature="0"
         id="path96"
         style="fill:#61798e;fill-opacity:1;fill-rule:nonzero;stroke:none;stroke-width:0.03527778"
         d="M 157.93328,67.324948 129.1004,69.73301 c -0.32738,0.02752 -0.56163,0.24518 -0.61666,0.53093 l 30.00023,-2.544939 c -0.0117,-0.256822 -0.21978,-0.421569 -0.55069,-0.394053" />
      <path
         inkscape:connector-curvature="0"
         id="path98"
         style="fill:#bcbcbc;fill-opacity:1;fill-rule:nonzero;stroke:none;stroke-width:0.03527778"
         d="m 133.94686,59.283026 h -1.03858 v -3.585634 h 0.16298 v -0.719314 h -0.4893 v 0.719314 h 0.16298 v 0.141817 h -0.47166 v 0.04974 h 0.47166 v 1.747309 h -0.47166 v 0.05009 h 0.47166 v 1.596673 h -0.49882 l -0.44768,1.114777 h 2.74814 l -0.59972,-1.114777" />
      <path
         inkscape:connector-curvature="0"
         id="path100"
         style="fill:#4ecdc4;fill-opacity:1;fill-rule:nonzero;stroke:none;stroke-width:0.03527778"
         d="m 132.40451,57.686353 h -2.88537 v -1.847144 h 2.88537 c 0,0 -0.44273,0.283986 -0.44273,0.923572 0,0.639233 0.44273,0.923572 0.44273,0.923572" />
      <path
         inkscape:connector-curvature="0"
         id="path102"
         style="fill:#ff847c;fill-opacity:1;fill-rule:nonzero;stroke:none;stroke-width:0.03527778"
         d="m 129.08276,72.932704 0.1464,0.583847 c 0,0 0.34855,0.583848 0.9518,0.583848 h 24.92092 c 0.63077,0 1.0467,-0.583848 1.0467,-0.583848 l 0.2413,-0.583847 h -27.30712" />
      <path
         inkscape:connector-curvature="0"
         id="path104"
         style="fill:#424242;fill-opacity:1;fill-rule:nonzero;stroke:none;stroke-width:0.03527778"
         d="m 130.41167,71.902593 c -0.36795,0 -0.6671,-0.29845 -0.6671,-0.667103 0,-0.3683 0.29915,-0.667103 0.6671,-0.667103 0.36866,0 0.66746,0.298803 0.66746,0.667103 0,0.368653 -0.2988,0.667103 -0.66746,0.667103 z m 0,-1.781881 c -0.61524,0 -1.11478,0.499181 -1.11478,1.114778 0,0.61595 0.49954,1.115131 1.11478,1.115131 0.61595,0 1.11513,-0.499181 1.11513,-1.115131 0,-0.615597 -0.49918,-1.114778 -1.11513,-1.114778" />
      <path
         inkscape:connector-curvature="0"
         id="path106"
         style="fill:#424242;fill-opacity:1;fill-rule:nonzero;stroke:none;stroke-width:0.03527778"
         d="m 132.91357,71.710329 c -0.36865,0 -0.66745,-0.298803 -0.66745,-0.667103 0,-0.3683 0.2988,-0.667103 0.66745,-0.667103 0.3683,0 0.66675,0.298803 0.66675,0.667103 0,0.3683 -0.29845,0.667103 -0.66675,0.667103 z m 0,-1.781881 c -0.61595,0 -1.11513,0.499181 -1.11513,1.114778 0,0.615598 0.49918,1.114778 1.11513,1.114778 0.6156,0 1.11478,-0.49918 1.11478,-1.114778 0,-0.615597 -0.49918,-1.114778 -1.11478,-1.114778" />
      <path
         inkscape:connector-curvature="0"
         id="path108"
         style="fill:#424242;fill-opacity:1;fill-rule:nonzero;stroke:none;stroke-width:0.03527778"
         d="m 135.3809,71.581212 c -0.3683,0 -0.6671,-0.29845 -0.6671,-0.667102 0,-0.3683 0.2988,-0.667103 0.6671,-0.667103 0.36865,0 0.6671,0.298803 0.6671,0.667103 0,0.368652 -0.29845,0.667102 -0.6671,0.667102 z m 0,-1.78188 c -0.6156,0 -1.11478,0.49918 -1.11478,1.114778 0,0.61595 0.49918,1.11513 1.11478,1.11513 0.61595,0 1.11513,-0.49918 1.11513,-1.11513 0,-0.615598 -0.49918,-1.114778 -1.11513,-1.114778" />
      <path
         inkscape:connector-curvature="0"
         id="path110"
         style="fill:#424242;fill-opacity:1;fill-rule:nonzero;stroke:none;stroke-width:0.03527778"
         d="m 148.81644,70.595551 c -0.36865,0 -0.66745,-0.298803 -0.66745,-0.667103 0,-0.368652 0.2988,-0.667102 0.66745,-0.667102 0.3683,0 0.66675,0.29845 0.66675,0.667102 0,0.3683 -0.29845,0.667103 -0.66675,0.667103 z m 0,-1.782233 c -0.61595,0 -1.11513,0.49918 -1.11513,1.11513 0,0.615598 0.49918,1.114778 1.11513,1.114778 0.6156,0 1.11478,-0.49918 1.11478,-1.114778 0,-0.61595 -0.49918,-1.11513 -1.11478,-1.11513" />
      <path
         inkscape:connector-curvature="0"
         id="path112"
         style="fill:#424242;fill-opacity:1;fill-rule:nonzero;stroke:none;stroke-width:0.03527778"
         d="m 151.25343,70.466435 c -0.36865,0 -0.66745,-0.298803 -0.66745,-0.667103 0,-0.3683 0.2988,-0.667103 0.66745,-0.667103 0.3683,0 0.6671,0.298803 0.6671,0.667103 0,0.3683 -0.2988,0.667103 -0.6671,0.667103 z m 0,-1.782234 c -0.61595,0 -1.11513,0.499181 -1.11513,1.115131 0,0.615597 0.49918,1.114778 1.11513,1.114778 0.6156,0 1.11478,-0.499181 1.11478,-1.114778 0,-0.61595 -0.49918,-1.115131 -1.11478,-1.115131" />
      <path
         inkscape:connector-curvature="0"
         id="path114"
         style="fill:#424242;fill-opacity:1;fill-rule:nonzero;stroke:none;stroke-width:0.03527778"
         d="m 153.70171,70.231485 c -0.3683,0 -0.6671,-0.298803 -0.6671,-0.667456 0,-0.3683 0.2988,-0.667103 0.6671,-0.667103 0.3683,0 0.6671,0.298803 0.6671,0.667103 0,0.368653 -0.2988,0.667456 -0.6671,0.667456 z m 0,-1.782234 c -0.61595,0 -1.11513,0.499181 -1.11513,1.114778 0,0.61595 0.49918,1.115131 1.11513,1.115131 0.61595,0 1.11513,-0.499181 1.11513,-1.115131 0,-0.615597 -0.49918,-1.114778 -1.11513,-1.114778" />
    </g>
  </g>
</svg>
