<?xml version="1.0" encoding="UTF-8" standalone="no"?>
<!-- Created with Inkscape (http://www.inkscape.org/) -->

<svg
   xmlns:dc="http://purl.org/dc/elements/1.1/"
   xmlns:cc="http://creativecommons.org/ns#"
   xmlns:rdf="http://www.w3.org/1999/02/22-rdf-syntax-ns#"
   xmlns:svg="http://www.w3.org/2000/svg"
   xmlns="http://www.w3.org/2000/svg"
   xmlns:sodipodi="http://sodipodi.sourceforge.net/DTD/sodipodi-0.dtd"
   xmlns:inkscape="http://www.inkscape.org/namespaces/inkscape"
   version="1.1"
   id="svg349"
   xml:space="preserve"
   width="214.69312"
   height="80.773201"
   viewBox="0 0 214.69312 80.773201"
   sodipodi:docname="fish.svg"
   inkscape:version="0.92.3 (2405546, 2018-03-11)"><metadata
     id="metadata355"><rdf:RDF><cc:Work
         rdf:about=""><dc:format>image/svg+xml</dc:format><dc:type
           rdf:resource="http://purl.org/dc/dcmitype/StillImage" /><dc:title></dc:title></cc:Work></rdf:RDF></metadata><defs
     id="defs353"><clipPath
       clipPathUnits="userSpaceOnUse"
       id="clipPath367"><path
         d="M 0,500 H 500 V 0 H 0 Z"
         id="path365"
         inkscape:connector-curvature="0" /></clipPath><clipPath
       clipPathUnits="userSpaceOnUse"
       id="clipPath387"><path
         d="m 389.756,273.424 h 31.396 v -5.094 h -31.396 z"
         id="path385"
         inkscape:connector-curvature="0" /></clipPath><clipPath
       clipPathUnits="userSpaceOnUse"
       id="clipPath403"><path
         d="m 350.172,279.102 h 16.699 v -4.581 h -16.699 z"
         id="path401"
         inkscape:connector-curvature="0" /></clipPath><clipPath
       clipPathUnits="userSpaceOnUse"
       id="clipPath419"><path
         d="m 326.293,279.893 h 20.023 v -3.816 h -20.023 z"
         id="path417"
         inkscape:connector-curvature="0" /></clipPath><clipPath
       clipPathUnits="userSpaceOnUse"
       id="clipPath439"><path
         d="m 422.478,271.195 h 13.161 v -12.841 h -13.161 z"
         id="path437"
         inkscape:connector-curvature="0" /></clipPath><clipPath
       clipPathUnits="userSpaceOnUse"
       id="clipPath467"><path
         d="m 329.919,260.6 h 86.74 v -17.228 h -86.74 z"
         id="path465"
         inkscape:connector-curvature="0" /></clipPath><clipPath
       clipPathUnits="userSpaceOnUse"
       id="clipPath483"><path
         d="m 310.162,250.572 h 5.183 v -5.325 h -5.183 z"
         id="path481"
         inkscape:connector-curvature="0" /></clipPath><clipPath
       clipPathUnits="userSpaceOnUse"
       id="clipPath511"><path
         d="m 281.826,272.718 h 9.58 v -9.581 h -9.58 z"
         id="path509"
         inkscape:connector-curvature="0" /></clipPath><clipPath
       clipPathUnits="userSpaceOnUse"
       id="clipPath527"><path
         d="m 318.687,264.324 h 22.65 v -8.318 h -22.65 z"
         id="path525"
         inkscape:connector-curvature="0" /></clipPath><clipPath
       clipPathUnits="userSpaceOnUse"
       id="clipPath571"><path
         d="m 286.727,271.575 h 2.431 v -2.432 h -2.431 z"
         id="path569"
         inkscape:connector-curvature="0" /></clipPath><clipPath
       clipPathUnits="userSpaceOnUse"
       id="clipPath587"><path
         d="m 283.963,267.485 h 1.437 v -1.437 h -1.437 z"
         id="path585"
         inkscape:connector-curvature="0" /></clipPath><clipPath
       clipPathUnits="userSpaceOnUse"
       id="clipPath615"><path
         d="M 99.0789,143.926 H 199.579 V 126.979 H 99.0789 Z"
         id="path613"
         inkscape:connector-curvature="0" /></clipPath><clipPath
       clipPathUnits="userSpaceOnUse"
       id="clipPath643"><path
         d="m 95.1346,111.024 h 9.7104 v -6.315 h -9.7104 z"
         id="path641"
         inkscape:connector-curvature="0" /></clipPath><clipPath
       clipPathUnits="userSpaceOnUse"
       id="clipPath659"><path
         d="m 132.508,110.578 h 7.96 v -4.949 h -7.96 z"
         id="path657"
         inkscape:connector-curvature="0" /></clipPath><clipPath
       clipPathUnits="userSpaceOnUse"
       id="clipPath675"><path
         d="m 140.326,123.777 h 61.8 v -16.945 h -61.8 z"
         id="path673"
         inkscape:connector-curvature="0" /></clipPath><clipPath
       clipPathUnits="userSpaceOnUse"
       id="clipPath703"><path
         d="M 65.3326,133.689 H 79.0405 V 119.981 H 65.3326 Z"
         id="path701"
         inkscape:connector-curvature="0" /></clipPath><clipPath
       clipPathUnits="userSpaceOnUse"
       id="clipPath731"><path
         d="M 98.7547,128.022 H 133.688 V 114.377 H 98.7547 Z"
         id="path729"
         inkscape:connector-curvature="0" /></clipPath><clipPath
       clipPathUnits="userSpaceOnUse"
       id="clipPath759"><path
         d="m 71.4864,131.589 h 3.5375 v -3.538 h -3.5375 z"
         id="path757"
         inkscape:connector-curvature="0" /></clipPath><clipPath
       clipPathUnits="userSpaceOnUse"
       id="clipPath787"><path
         d="m 67.2119,126.061 h 2.211 v -2.211 h -2.211 z"
         id="path785"
         inkscape:connector-curvature="0" /></clipPath><clipPath
       clipPathUnits="userSpaceOnUse"
       id="clipPath807"><path
         d="m 210.227,134.495 h 3.74 v -12.841 h -3.74 z"
         id="path805"
         inkscape:connector-curvature="0" /></clipPath><clipPath
       clipPathUnits="userSpaceOnUse"
       id="clipPath827"><path
         d="m 104.269,416.542 h 72.333 V 402.25 h -72.333 z"
         id="path825"
         inkscape:connector-curvature="0" /></clipPath><clipPath
       clipPathUnits="userSpaceOnUse"
       id="clipPath851"><path
         d="m 102.42,381.467 h 10.33 v -4.829 h -10.33 z"
         id="path849"
         inkscape:connector-curvature="0" /></clipPath><clipPath
       clipPathUnits="userSpaceOnUse"
       id="clipPath867"><path
         d="m 134.258,387.799 h 41.937 V 376.78 h -41.937 z"
         id="path865"
         inkscape:connector-curvature="0" /></clipPath><clipPath
       clipPathUnits="userSpaceOnUse"
       id="clipPath895"><path
         d="m 73.0873,402.905 h 7.5172 v -7.517 h -7.5172 z"
         id="path893"
         inkscape:connector-curvature="0" /></clipPath><clipPath
       clipPathUnits="userSpaceOnUse"
       id="clipPath931"><path
         d="M 103.801,396.233 H 126.38 V 384.117 H 103.801 Z"
         id="path929"
         inkscape:connector-curvature="0" /></clipPath><clipPath
       clipPathUnits="userSpaceOnUse"
       id="clipPath959"><path
         d="m 76.1307,402.088 h 1.9898 v -1.99 h -1.9898 z"
         id="path957"
         inkscape:connector-curvature="0" /></clipPath><clipPath
       clipPathUnits="userSpaceOnUse"
       id="clipPath975"><path
         d="m 74.2329,398.513 h 1.2161 v -1.216 h -1.2161 z"
         id="path973"
         inkscape:connector-curvature="0" /></clipPath><clipPath
       clipPathUnits="userSpaceOnUse"
       id="clipPath1011"><path
         d="m 197.685,403.7 h 6.115 v -17.634 h -6.115 z"
         id="path1009"
         inkscape:connector-curvature="0" /></clipPath><clipPath
       clipPathUnits="userSpaceOnUse"
       id="clipPath1031"><path
         d="M 326.181,416.988 H 399.62 V 401.927 H 326.181 Z"
         id="path1029"
         inkscape:connector-curvature="0" /></clipPath><clipPath
       clipPathUnits="userSpaceOnUse"
       id="clipPath1059"><path
         d="m 320.875,380.786 h 13.001 v -4.67 h -13.001 z"
         id="path1057"
         inkscape:connector-curvature="0" /></clipPath><clipPath
       clipPathUnits="userSpaceOnUse"
       id="clipPath1075"><path
         d="m 366.262,390.351 h 36.26 v -12.678 h -36.26 z"
         id="path1073"
         inkscape:connector-curvature="0" /></clipPath><clipPath
       clipPathUnits="userSpaceOnUse"
       id="clipPath1103"><path
         d="m 290.432,404.953 h 9.949 v -9.949 h -9.949 z"
         id="path1101"
         inkscape:connector-curvature="0" /></clipPath><clipPath
       clipPathUnits="userSpaceOnUse"
       id="clipPath1131"><path
         d="m 321.606,398.981 h 25.205 v -11.534 h -25.205 z"
         id="path1129"
         inkscape:connector-curvature="0" /></clipPath><clipPath
       clipPathUnits="userSpaceOnUse"
       id="clipPath1195"><path
         d="m 295.075,403.626 h 2.432 v -2.432 h -2.432 z"
         id="path1193"
         inkscape:connector-curvature="0" /></clipPath><clipPath
       clipPathUnits="userSpaceOnUse"
       id="clipPath1211"><path
         d="m 291.832,399.426 h 1.474 v -1.474 h -1.474 z"
         id="path1209"
         inkscape:connector-curvature="0" /></clipPath><clipPath
       clipPathUnits="userSpaceOnUse"
       id="clipPath1231"><path
         d="m 415.716,405.319 h 7.275 v -15.618 h -7.275 z"
         id="path1229"
         inkscape:connector-curvature="0" /></clipPath><clipPath
       clipPathUnits="userSpaceOnUse"
       id="clipPath1255"><path
         d="m 125.556,239.554 h 8.756 v -3.51 h -8.756 z"
         id="path1253"
         inkscape:connector-curvature="0" /></clipPath><clipPath
       clipPathUnits="userSpaceOnUse"
       id="clipPath1271"><path
         d="m 159.092,260.225 h 26.324 v -14.017 h -26.324 z"
         id="path1269"
         inkscape:connector-curvature="0" /></clipPath><clipPath
       clipPathUnits="userSpaceOnUse"
       id="clipPath1291"><path
         d="m 118.481,289.242 h 27.451 v -4.605 h -27.451 z"
         id="path1289"
         inkscape:connector-curvature="0" /></clipPath><clipPath
       clipPathUnits="userSpaceOnUse"
       id="clipPath1331"><path
         d="m 72.4288,276.044 h 9.5807 v -9.581 h -9.5807 z"
         id="path1329"
         inkscape:connector-curvature="0" /></clipPath><clipPath
       clipPathUnits="userSpaceOnUse"
       id="clipPath1355"><path
         d="m 98.3151,252.66 h 27.9939 v -6.288 H 98.3151 Z"
         id="path1353"
         inkscape:connector-curvature="0" /></clipPath><clipPath
       clipPathUnits="userSpaceOnUse"
       id="clipPath1403"><path
         d="m 77.0349,274.791 h 2.432 v -2.432 h -2.432 z"
         id="path1401"
         inkscape:connector-curvature="0" /></clipPath><clipPath
       clipPathUnits="userSpaceOnUse"
       id="clipPath1419"><path
         d="m 73.3869,271.033 h 1.7687 v -1.769 h -1.7687 z"
         id="path1417"
         inkscape:connector-curvature="0" /></clipPath><clipPath
       clipPathUnits="userSpaceOnUse"
       id="clipPath1439"><path
         d="m 189.55,276.312 h 7.983 v -18.448 h -7.983 z"
         id="path1437"
         inkscape:connector-curvature="0" /></clipPath><clipPath
       clipPathUnits="userSpaceOnUse"
       id="clipPath1459"><path
         d="M 319.424,150.459 H 402.06 V 129.286 H 319.424 Z"
         id="path1457"
         inkscape:connector-curvature="0" /></clipPath><clipPath
       clipPathUnits="userSpaceOnUse"
       id="clipPath1483"><path
         d="m 320.892,104.948 h 16.962 v -5.483 h -16.962 z"
         id="path1481"
         inkscape:connector-curvature="0" /></clipPath><clipPath
       clipPathUnits="userSpaceOnUse"
       id="clipPath1499"><path
         d="m 371.07,118.059 h 28.09 v -15.676 h -28.09 z"
         id="path1497"
         inkscape:connector-curvature="0" /></clipPath><clipPath
       clipPathUnits="userSpaceOnUse"
       id="clipPath1531"><path
         d="m 289.275,133.991 h 12.16 v -12.16 h -12.16 z"
         id="path1529"
         inkscape:connector-curvature="0" /></clipPath><clipPath
       clipPathUnits="userSpaceOnUse"
       id="clipPath1575"><path
         d="M 322.558,126.932 H 361.36 V 111.38 h -38.802 z"
         id="path1573"
         inkscape:connector-curvature="0" /></clipPath><clipPath
       clipPathUnits="userSpaceOnUse"
       id="clipPath1595"><path
         d="m 294.582,132.886 h 3.758 v -3.759 h -3.758 z"
         id="path1593"
         inkscape:connector-curvature="0" /></clipPath><clipPath
       clipPathUnits="userSpaceOnUse"
       id="clipPath1611"><path
         d="m 290.602,127.432 h 1.916 v -1.916 h -1.916 z"
         id="path1609"
         inkscape:connector-curvature="0" /></clipPath><clipPath
       clipPathUnits="userSpaceOnUse"
       id="clipPath1643"><path
         d="m 415.113,136.22 h 5.363 v -18.466 h -5.363 z"
         id="path1641"
         inkscape:connector-curvature="0" /></clipPath><clipPath
       clipPathUnits="userSpaceOnUse"
       id="clipPath1659"><path
         d="M 0,500 H 500 V 0 H 0 Z"
         id="path1657"
         inkscape:connector-curvature="0" /></clipPath></defs><sodipodi:namedview
     pagecolor="#ffffff"
     bordercolor="#666666"
     borderopacity="1"
     objecttolerance="10"
     gridtolerance="10"
     guidetolerance="10"
     inkscape:pageopacity="0"
     inkscape:pageshadow="2"
     inkscape:window-width="2400"
     inkscape:window-height="1284"
     id="namedview351"
     showgrid="false"
     fit-margin-top="0"
     fit-margin-left="0"
     fit-margin-right="0"
     fit-margin-bottom="0"
     inkscape:zoom="1.416"
     inkscape:cx="-68.909945"
     inkscape:cy="-155.93249"
     inkscape:window-x="1491"
     inkscape:window-y="209"
     inkscape:window-maximized="1"
     inkscape:current-layer="g357" /><g
     id="g357"
     inkscape:groupmode="layer"
     inkscape:label="278580-P66VDW-12"
     transform="matrix(1.3333333,0,0,-1.3333333,-374.60631,567.26292)"><g
       id="g383" /><g
       id="g399" /><g
       id="g415" /><g
       id="g435" /><g
       id="g463" /><g
       id="g479" /><g
       id="g507" /><g
       id="g523" /><g
       id="g567" /><g
       id="g583" /><g
       id="g611" /><g
       id="g639" /><g
       id="g655" /><g
       id="g671" /><g
       id="g699" /><g
       id="g727" /><g
       id="g755" /><g
       id="g783" /><g
       id="g803" /><g
       id="g823" /><g
       id="g847" /><g
       id="g863" /><g
       id="g891" /><g
       id="g927" /><g
       id="g955" /><g
       id="g971" /><g
       id="g1007" /><path
       inkscape:connector-curvature="0"
       id="path1023"
       style="fill:#977b52;fill-opacity:1;fill-rule:nonzero;stroke:none"
       d="m 400.9113,406.1322 c -0.371,-0.654 -0.76,-0.92 -1.291,-1.327 -0.548,-0.424 -1.203,-1.008 -2.105,-2.352 -1.769,-2.653 -23.135,5.589 -23.135,5.589 0,0 -15.636,4.581 -24.321,5.024 -8.702,0.442 -23.878,0.283 -23.878,0.283 l 1.911,1.185 c 0,0 1.273,1.043 2.953,2.423 2.229,1.822 5.165,4.209 6.916,5.536 3.096,2.353 3.255,2.954 3.255,2.954 0,0 1.91,-3.095 5.448,-0.601 0,0 2.069,-2.211 5.005,-0.283 0,0 1.044,-2.211 4.581,-1.327 0,0 0.884,-2.512 5.006,-1.928 0,0 1.627,-2.653 5.164,-1.327 0,0 1.469,-2.794 5.749,-2.051 0,0 3.378,-1.044 5.448,-0.301 0,0 2.069,-1.327 5.306,-1.327 0,0 3.537,-1.91 5.607,-1.768 0,0 2.494,-1.468 5.306,-1.911 0,0 1.327,-0.742 3.679,-2.211 2.353,-1.485 4.121,-2.953 3.396,-4.28" /><g
       id="g1027" /><g
       id="g1039"><g
         style="opacity:0.5"
         id="g1037"
         clip-path="url(#clipPath1031)"><g
           id="g1035"
           transform="translate(399.6202,404.8057)"><path
             inkscape:connector-curvature="0"
             id="path1033"
             style="fill:#977b52;fill-opacity:1;fill-rule:nonzero;stroke:none"
             d="m 0,0 c -0.548,-0.424 -1.203,-1.008 -2.105,-2.352 -1.769,-2.653 -23.135,5.589 -23.135,5.589 0,0 -15.636,4.581 -24.32,5.023 -8.703,0.442 -23.879,0.283 -23.879,0.283 l 1.911,1.185 c 0,0 1.273,1.044 2.953,2.423 6.262,0.142 18.095,-0.106 31.537,-2.865 C -21.243,6.049 -5.731,1.68 0,0" /></g></g></g><path
       inkscape:connector-curvature="0"
       id="path1043"
       style="fill:#7f6844;fill-opacity:1;fill-rule:nonzero;stroke:none"
       d="m 331.8239,372.4552 c -1.804,0.654 -4.103,2.14 -6.085,4.333 -0.636,0.673 -1.22,1.415 -1.768,2.229 l 0.725,0.283 3.697,1.486 c 0,0 3.572,-2.087 5.483,-4.67 0.583,-0.778 1.008,-1.592 1.149,-2.405 0.266,-1.627 -1.167,-1.981 -3.201,-1.256" /><path
       inkscape:connector-curvature="0"
       id="path1047"
       style="fill:#977b52;fill-opacity:1;fill-rule:nonzero;stroke:none"
       d="m 331.4877,364.8673 c 0,0 -2.653,1.769 -5.907,5.306 -1.84,2.016 -3.113,4.935 -3.874,7.057 -0.548,1.628 -0.832,2.813 -0.832,2.813 l 3.096,-0.301 c 0,0 0.283,-0.159 0.725,-0.442 0.885,-0.531 2.459,-1.557 3.927,-2.795 1.256,-1.079 2.423,-2.299 3.007,-3.537 0.088,-0.159 0.159,-0.336 0.194,-0.513 1.256,-3.343 -0.336,-7.588 -0.336,-7.588" /><path
       inkscape:connector-curvature="0"
       id="path1051"
       style="fill:#977b52;fill-opacity:1;fill-rule:nonzero;stroke:none"
       d="m 402.4858,387.7725 c -0.124,-0.584 -0.531,-1.273 -1.291,-2.122 -7.075,-7.818 -14.592,-7.677 -15.618,-8.402 -1.026,-0.743 -3.838,-1.044 -5.006,-1.928 -1.185,-0.884 -2.812,-1.167 -2.812,-1.167 -1.026,-0.743 -2.795,-0.442 -2.795,-0.442 -2.37,0.53 -4.634,2.352 -6.261,3.962 -1.504,1.503 -2.441,2.812 -2.441,2.812 l 18.43,8.702 c 0,0 18.767,3.396 17.794,-1.415" /><g
       id="g1055" /><g
       id="g1067"><g
         style="opacity:0.5"
         id="g1065"
         clip-path="url(#clipPath1059)"><g
           id="g1063"
           transform="translate(333.8757,376.1165)"><path
             inkscape:connector-curvature="0"
             id="path1061"
             style="fill:#977b52;fill-opacity:1;fill-rule:nonzero;stroke:none"
             d="m 0,0 c -1.875,0.106 -3.644,0.248 -5.253,0.389 -1.026,0.089 -1.999,0.177 -2.883,0.283 -1.61,0.159 -2.972,0.319 -4.033,0.442 -0.548,1.628 -0.832,2.813 -0.832,2.813 l 3.096,-0.301 c 0,0 0.283,-0.159 0.725,-0.442 L -5.483,4.67 C -5.483,4.67 -1.91,2.582 0,0" /></g></g></g><g
       id="g1071" /><g
       id="g1083"><g
         style="opacity:0.5"
         id="g1081"
         clip-path="url(#clipPath1075)"><g
           id="g1079"
           transform="translate(402.4858,387.7725)"><path
             inkscape:connector-curvature="0"
             id="path1077"
             style="fill:#977b52;fill-opacity:1;fill-rule:nonzero;stroke:none"
             d="m 0,0 c -7.535,-4.28 -20.571,-8.012 -33.783,-10.099 -1.504,1.503 -2.441,2.812 -2.441,2.812 l 18.43,8.702 C -17.794,1.415 0.973,4.811 0,0" /></g></g></g><path
       inkscape:connector-curvature="0"
       id="path1087"
       style="fill:#dfe3ec;fill-opacity:1;fill-rule:nonzero;stroke:none"
       d="m 428.3624,398.1021 c -0.354,-1.592 1.256,-4.298 3.661,-8.242 0,-0.018 0.018,-0.018 0.018,-0.018 0.601,-0.991 1.274,-2.07 1.963,-3.237 3.414,-5.766 5.077,-8.631 4.741,-11.178 -0.319,-2.547 -9.941,6.296 -14.592,9.834 -3.45,2.635 -6.227,5.023 -8.437,6.261 -0.743,0.425 -1.433,0.708 -2.052,0.814 -2.441,0.46 -6.527,-0.319 -15.495,-4.634 -8.949,-4.316 -27.963,-10.277 -50.409,-10.171 -20.765,0.106 -33.872,0.389 -44.643,5.519 -0.425,0.212 -0.867,0.424 -1.291,0.637 -0.425,0.212 -0.832,0.459 -1.256,0.689 0,0 -0.619,0.124 -1.681,0.407 -3.166,0.814 -10.205,3.078 -16.007,7.889 0,0 -1.15,0.584 -1.68,1.716 -0.018,0.035 -0.036,0.088 -0.053,0.123 -0.159,0.372 -0.23,0.796 -0.177,1.292 0.018,0.123 0.035,0.23 0.071,0.353 0.035,0.124 0.07,0.266 0.106,0.389 0.106,0.248 0.23,0.513 0.406,0.779 0,0 -0.672,1.096 0.885,2.087 0.159,0.106 0.407,0.318 0.743,0.601 1.698,1.486 5.925,5.2 13.938,8.649 0.866,0.372 1.786,0.743 2.759,1.115 5.819,2.211 13.319,4.192 22.905,5.235 26.249,2.83 61.022,-7.234 71.67,-10.294 0.973,-0.283 1.733,-0.513 2.282,-0.654 6.526,-1.769 13.814,-2.653 17.687,-1.539 0.637,0.177 1.645,0.69 2.919,1.397 h 0.017 c 1.858,1.079 4.263,2.6 6.846,4.263 6.349,4.05 13.778,8.914 16.979,9.693 0,0 1.982,-0.319 -0.336,-4.086 -2.317,-3.768 -12.045,-13.708 -12.487,-15.689" /><path
       inkscape:connector-curvature="0"
       id="path1091"
       style="fill:#d6c296;fill-opacity:1;fill-rule:nonzero;stroke:none"
       d="m 394.4555,404.7172 15.441,-4.039 c -59.843,-26.383 -108.92,-11.791 -114.084,-10.606 -3.414,0.778 -10.401,3.997 -14.769,6.084 0.035,0.124 0.07,0.266 0.106,0.389 0.106,0.248 0.23,0.513 0.406,0.779 0,0 -0.672,1.096 0.885,2.087 0.159,0.106 0.407,0.318 0.743,0.601 1.698,1.486 5.925,5.2 13.938,8.649 0.866,0.372 1.786,0.743 2.759,1.115 5.819,2.211 13.319,4.192 22.905,5.235 26.249,2.83 61.022,-7.234 71.67,-10.294" /><path
       inkscape:connector-curvature="0"
       id="path1095"
       style="fill:#c29952;fill-opacity:1;fill-rule:nonzero;stroke:none"
       d="m 312.1731,405.0948 c 0,0 -5.695,3.449 -12.293,4.687 -0.973,-0.371 -1.892,-0.743 -2.759,-1.114 -8.013,-3.449 -12.24,-7.164 -13.938,-8.65 1.025,-1.818 3.331,-5.148 6.972,-6.643 2.213,-1.096 5.061,-1.769 8.586,-1.171 2.759,0.467 4.322,1.55 5.183,2.851 3.082,-0.266 8.952,0.319 10.46,8.271 0,0 36.348,1.627 60.969,-3.52 -1.15,0.425 -23.701,8.455 -63.18,5.289" /><g
       id="g1099" /><g
       id="g1111"><g
         style="opacity:0.5"
         id="g1109"
         clip-path="url(#clipPath1103)"><g
           id="g1107"
           transform="translate(300.3814,399.9784)"><path
             inkscape:connector-curvature="0"
             id="path1105"
             style="fill:#c29952;fill-opacity:1;fill-rule:nonzero;stroke:none"
             d="m 0,0 c 0,-2.747 -2.227,-4.975 -4.975,-4.975 -2.747,0 -4.974,2.228 -4.974,4.975 0,2.747 2.227,4.975 4.974,4.975 C -2.227,4.975 0,2.747 0,0" /></g></g></g><path
       inkscape:connector-curvature="0"
       id="path1115"
       style="fill:#c29952;fill-opacity:1;fill-rule:nonzero;stroke:none"
       d="m 317.4794,400.089 c 0,0 45.251,-3.39 66.033,-1.769 0,0 -34.048,-7.222 -66.033,1.769" /><path
       inkscape:connector-curvature="0"
       id="path1119"
       style="fill:#c29952;fill-opacity:1;fill-rule:nonzero;stroke:none"
       d="m 318.6585,393.8983 c 0,0 34.343,-7.665 67.655,1.916 0,0 -37.291,-15.182 -67.655,-1.916" /><path
       inkscape:connector-curvature="0"
       id="path1123"
       style="fill:#231f20;fill-opacity:1;fill-rule:nonzero;stroke:none"
       d="m 328.5341,396.6989 c 0,0 -7.812,1.326 -9.433,0.737 -1.622,-0.59 -0.737,-4.127 2.063,-3.832 2.801,0.294 7.37,3.095 7.37,3.095" /><g
       id="g1127" /><g
       id="g1139"><g
         style="opacity:0.5"
         id="g1137"
         clip-path="url(#clipPath1131)"><g
           id="g1135"
           transform="translate(321.6064,394.0457)"><path
             inkscape:connector-curvature="0"
             id="path1133"
             style="fill:#c29952;fill-opacity:1;fill-rule:nonzero;stroke:none"
             d="m 0,0 c 0,0 4.569,1.032 8.107,3.243 3.537,2.211 17.098,1.621 17.098,1.621 0,0 0.147,-2.506 -6.78,-5.748 0,0 -3.833,-4.127 -10.023,-5.159 C 2.211,-7.075 1.769,-6.633 1.327,-5.011 0.884,-3.39 0,0 0,0" /></g></g></g><path
       inkscape:connector-curvature="0"
       id="path1143"
       style="fill:#bfac9f;fill-opacity:1;fill-rule:nonzero;stroke:none"
       d="m 299.5707,400.4206 c 0,-2.747 -2.227,-4.975 -4.975,-4.975 -2.747,0 -4.974,2.228 -4.974,4.975 0,2.747 2.227,4.975 4.974,4.975 2.748,0 4.975,-2.228 4.975,-4.975" /><path
       inkscape:connector-curvature="0"
       id="path1147"
       style="fill:#231f20;fill-opacity:1;fill-rule:nonzero;stroke:none"
       d="m 297.1387,400.4206 c 0,-1.404 -1.138,-2.543 -2.543,-2.543 -1.404,0 -2.542,1.139 -2.542,2.543 0,1.404 1.138,2.543 2.542,2.543 1.405,0 2.543,-1.139 2.543,-2.543" /><path
       inkscape:connector-curvature="0"
       id="path1151"
       style="fill:#528a91;fill-opacity:1;fill-rule:nonzero;stroke:none"
       d="m 424.2061,408.19 c -5.483,-10.489 -15.742,-12.381 -50.268,-5.448 -38.913,7.818 -59.554,0.584 -59.554,0.584 -2.264,1.839 -4.846,3.078 -7.446,3.909 -3.432,1.061 -6.934,1.397 -9.817,1.433 6.137,2.653 14.486,5.129 25.664,6.349 28.637,3.096 67.425,-9.18 73.952,-10.948 6.527,-1.769 13.814,-2.654 17.688,-1.539 1.326,0.371 4.28,2.158 7.8,4.404 0.637,0.407 1.309,0.832 1.981,1.256" /><path
       inkscape:connector-curvature="0"
       id="path1155"
       style="fill:#264c51;fill-opacity:1;fill-rule:nonzero;stroke:none"
       d="m 422.2249,406.934 c -6.102,-10.895 -31.643,-5.607 -62.296,1.114 -26.053,5.714 -44.784,1.734 -52.991,-0.813 -3.432,1.061 -6.934,1.397 -9.817,1.433 6.138,2.653 14.486,5.129 25.665,6.349 28.636,3.096 67.425,-9.18 73.951,-10.948 6.527,-1.769 13.814,-2.653 17.688,-1.539 1.326,0.371 4.28,2.158 7.8,4.404" /><path
       inkscape:connector-curvature="0"
       id="path1159"
       style="fill:#264c51;fill-opacity:1;fill-rule:nonzero;stroke:none"
       d="m 281.1491,394.5115 c -0.159,0.371 -0.23,0.796 -0.177,1.291 0.036,0.23 0.088,0.478 0.177,0.743 l 3.555,-1.751 2.706,-1.238 c 0.301,-1.397 -4.262,0.194 -6.261,0.955" /><path
       inkscape:connector-curvature="0"
       id="path1163"
       style="fill:#528a91;fill-opacity:1;fill-rule:nonzero;stroke:none"
       d="m 287.4105,393.5624 c 0.089,-0.602 -3.467,1.344 -6.438,2.246 0.053,0.46 0.23,0.973 0.583,1.521 1.539,-0.778 5.749,-2.989 5.855,-3.767" /><path
       inkscape:connector-curvature="0"
       id="path1167"
       style="fill:#a2bdd0;fill-opacity:1;fill-rule:nonzero;stroke:none"
       d="m 438.7452,375.4267 c -0.318,-2.547 -9.941,6.297 -14.592,9.834 -3.449,2.636 -6.226,5.024 -8.437,6.262 -0.743,0.424 -1.433,0.707 -2.052,0.813 -2.441,0.46 -6.527,-0.318 -15.494,-4.634 -8.95,-4.316 -27.964,-10.276 -50.41,-10.17 -20.765,0.106 -33.871,0.389 -44.643,5.518 -0.867,0.407 -1.716,0.849 -2.547,1.327 0,0 -9.958,1.892 -17.688,8.295 0,0 -1.149,0.584 -1.68,1.716 2.83,-2.211 10.896,-7.517 24.78,-8.897 0,0 20.783,-10.17 63.233,-3.378 0,0 29.485,8.101 35.959,11.196 6.491,3.095 15.636,0.743 22.11,-0.884 1.414,-0.354 3.059,-1.309 4.74,-2.565 0,-0.018 0.017,-0.018 0.017,-0.018 0.602,-0.99 1.274,-2.069 1.964,-3.237 3.413,-5.766 5.076,-8.631 4.74,-11.178" /><path
       inkscape:connector-curvature="0"
       id="path1171"
       style="fill:#977b52;fill-opacity:1;fill-rule:nonzero;stroke:none"
       d="m 428.3624,398.1021 c -0.442,-1.999 2.211,-5.766 5.642,-11.497 3.414,-5.766 5.077,-8.631 4.741,-11.178 -0.319,-2.547 -9.941,6.296 -14.592,9.834 -2.141,1.645 -4.033,3.184 -5.696,4.439 h -0.018 c -0.99,0.726 -1.892,1.362 -2.723,1.822 6.013,1.663 4.934,6.208 4.934,6.208 0.443,2.494 -1.556,4.758 -3.29,6.191 0.708,0.407 1.486,0.885 2.318,1.398 1.379,0.848 2.918,1.821 4.528,2.865 6.349,4.05 13.778,8.914 16.979,9.693 0,0 1.982,-0.319 -0.336,-4.086 -2.317,-3.768 -12.045,-13.708 -12.487,-15.689" /><path
       inkscape:connector-curvature="0"
       id="path1175"
       style="fill:#dfe3ec;fill-opacity:1;fill-rule:nonzero;stroke:none"
       d="m 310.245,387.2774 c -3.095,-1.857 -6.42,-3.007 -8.419,-3.591 -0.425,0.213 -0.832,0.46 -1.256,0.69 0,0 -0.619,0.124 -1.68,0.407 2.918,0.566 8.985,2.158 12.735,6.155 5.076,5.413 3.007,11.833 0.035,15.141 0,0 3.007,-2.158 4.333,-6.686 1.327,-4.528 -0.884,-9.18 -5.748,-12.116" /><path
       inkscape:connector-curvature="0"
       id="path1179"
       style="fill:#264c51;fill-opacity:1;fill-rule:nonzero;stroke:none"
       d="m 313.4997,388.5921 c -2.158,-1.946 -6.456,-3.962 -10.383,-5.536 -0.866,0.407 -1.716,0.849 -2.547,1.326 3.874,0.513 13.814,4.652 14.999,10.843 1.097,5.801 -3.36,10.312 -3.909,10.86 8.252,-5.259 6.686,-13.089 1.84,-17.493" /><path
       inkscape:connector-curvature="0"
       id="path1183"
       style="fill:#dfe3ec;fill-opacity:1;fill-rule:nonzero;stroke:none"
       d="m 291.2428,392.1296 c 0,0 6.283,-1.474 9.931,0.626 3.648,2.101 5.675,5.546 4.219,11.313 0,0 2.137,-5.011 1.308,-7.941 -0.829,-2.929 -2.985,-4.422 -2.985,-4.422 0,0 -2.708,-1.437 -4.587,-1.713 -1.88,-0.277 -5.435,0.516 -7.886,2.137" /><path
       inkscape:connector-curvature="0"
       id="path1187"
       style="fill:#264c51;fill-opacity:1;fill-rule:nonzero;stroke:none"
       d="m 291.2428,392.1296 c 0,0 5.822,-2.469 10.097,-0.553 4.274,1.916 6.246,5.546 4.053,12.492 0,0 6.098,-10.828 -3.058,-13.745 -7.462,-2.376 -11.092,1.806 -11.092,1.806" /><g
       id="g1191" /><g
       id="g1203"><g
         style="opacity:0.80000299"
         id="g1201"
         clip-path="url(#clipPath1195)"><g
           id="g1199"
           transform="translate(297.5072,402.4105)"><path
             inkscape:connector-curvature="0"
             id="path1197"
             style="fill:#ffffff;fill-opacity:1;fill-rule:nonzero;stroke:none"
             d="m 0,0 c 0,-0.672 -0.545,-1.216 -1.216,-1.216 -0.672,0 -1.216,0.544 -1.216,1.216 0,0.672 0.544,1.216 1.216,1.216 C -0.545,1.216 0,0.672 0,0" /></g></g></g><g
       id="g1207" /><g
       id="g1219"><g
         style="opacity:0.80000299"
         id="g1217"
         clip-path="url(#clipPath1211)"><g
           id="g1215"
           transform="translate(293.3064,398.6887)"><path
             inkscape:connector-curvature="0"
             id="path1213"
             style="fill:#ffffff;fill-opacity:1;fill-rule:nonzero;stroke:none"
             d="m 0,0 c 0,-0.407 -0.33,-0.737 -0.737,-0.737 -0.407,0 -0.737,0.33 -0.737,0.737 0,0.407 0.33,0.737 0.737,0.737 C -0.33,0.737 0,0.407 0,0" /></g></g></g><path
       inkscape:connector-curvature="0"
       id="path1223"
       style="fill:#977b52;fill-opacity:1;fill-rule:nonzero;stroke:none"
       d="m 319.9851,395.0775 c 0,0 4.569,1.032 8.107,3.243 3.537,2.211 17.098,1.621 17.098,1.621 0,0 0.147,-2.506 -6.781,-5.748 0,0 -3.832,-4.128 -10.022,-5.159 -6.191,-1.032 -6.633,-0.59 -7.075,1.031 -0.443,1.622 -1.327,5.012 -1.327,5.012" /><g
       id="g1227" /><g
       id="g1239"><g
         style="opacity:0.5"
         id="g1237"
         clip-path="url(#clipPath1231)"><g
           id="g1235"
           transform="translate(422.9324,397.3946)"><path
             inkscape:connector-curvature="0"
             id="path1233"
             style="fill:#977b52;fill-opacity:1;fill-rule:nonzero;stroke:none"
             d="m 0,0 c 0,0 0.778,-5.483 -4.475,-7.694 h -0.017 c -0.991,0.725 -1.893,1.362 -2.724,1.822 6.013,1.662 4.935,6.208 4.935,6.208 0.442,2.494 -1.557,4.758 -3.291,6.191 0.708,0.407 1.486,0.884 2.318,1.397 C -1.733,6.35 0.442,3.449 0,0" /></g></g></g><g
       id="g1251" /><g
       id="g1267" /><g
       id="g1287" /><g
       id="g1327" /><g
       id="g1351" /><g
       id="g1399" /><g
       id="g1415" /><g
       id="g1435" /><g
       id="g1455" /><g
       id="g1479" /><g
       id="g1495" /><g
       id="g1527" /><g
       id="g1571" /><g
       id="g1591" /><g
       id="g1607" /><g
       id="g1639" /></g></svg>