<?xml version="1.0" encoding="UTF-8" standalone="no"?>
<!-- Created with Inkscape (http://www.inkscape.org/) -->

<svg
   xmlns:dc="http://purl.org/dc/elements/1.1/"
   xmlns:cc="http://creativecommons.org/ns#"
   xmlns:rdf="http://www.w3.org/1999/02/22-rdf-syntax-ns#"
   xmlns:svg="http://www.w3.org/2000/svg"
   xmlns="http://www.w3.org/2000/svg"
   xmlns:sodipodi="http://sodipodi.sourceforge.net/DTD/sodipodi-0.dtd"
   xmlns:inkscape="http://www.inkscape.org/namespaces/inkscape"
   version="1.1"
   id="svg3238"
   xml:space="preserve"
   width="124.47504"
   height="160.19101"
   viewBox="0 0 124.47504 160.19101"
   sodipodi:docname="kraken.svg"
   inkscape:version="0.92.3 (2405546, 2018-03-11)"><metadata
     id="metadata3244"><rdf:RDF><cc:Work
         rdf:about=""><dc:format>image/svg+xml</dc:format><dc:type
           rdf:resource="http://purl.org/dc/dcmitype/StillImage" /><dc:title></dc:title></cc:Work></rdf:RDF></metadata><defs
     id="defs3242"><clipPath
       clipPathUnits="userSpaceOnUse"
       id="clipPath3256"><path
         d="M 0,500 H 500 V 0 H 0 Z"
         id="path3254"
         inkscape:connector-curvature="0" /></clipPath><clipPath
       clipPathUnits="userSpaceOnUse"
       id="clipPath3320"><path
         d="m 238,422.252 h 26.317 v -3.261 H 238 Z"
         id="path3318"
         inkscape:connector-curvature="0" /></clipPath><clipPath
       clipPathUnits="userSpaceOnUse"
       id="clipPath3780"><path
         d="M 0,500 H 500 V 0 H 0 Z"
         id="path3778"
         inkscape:connector-curvature="0" /></clipPath></defs><sodipodi:namedview
     pagecolor="#ffffff"
     bordercolor="#666666"
     borderopacity="1"
     objecttolerance="10"
     gridtolerance="10"
     guidetolerance="10"
     inkscape:pageopacity="0"
     inkscape:pageshadow="2"
     inkscape:window-width="2400"
     inkscape:window-height="1284"
     id="namedview3240"
     showgrid="false"
     fit-margin-top="0"
     fit-margin-left="0"
     fit-margin-right="0"
     fit-margin-bottom="0"
     inkscape:zoom="1.0012632"
     inkscape:cx="-577.93663"
     inkscape:cy="-23.597484"
     inkscape:window-x="1491"
     inkscape:window-y="209"
     inkscape:window-maximized="1"
     inkscape:current-layer="g3246" /><g
     id="g3246"
     inkscape:groupmode="layer"
     inkscape:label="2461448"
     transform="matrix(1.3333333,0,0,-1.3333333,-272.6403,441.9524)"><g
       id="g3474"
       transform="translate(278.1729,233.207)"><path
         d="m 0,0 c -2.051,-3.055 -6.245,-5.762 -10.111,-4.654 -3.022,0.866 -4.216,4.244 -3.568,7.088 0.633,2.773 2.866,3.774 4.641,5.683 1.419,1.527 2.321,3.432 2.905,5.415 2.453,8.319 0.235,19.002 -5.353,25.633 -0.246,0.293 -0.554,0.321 -0.815,0.208 -0.117,0.028 -0.244,0.035 -0.386,0.003 -1.833,-0.417 -2.786,-2.747 -4.621,-2.898 -0.401,0.567 -1.504,0.429 -1.486,-0.444 0.079,-3.856 0.969,-7.492 0.659,-11.394 -0.352,-4.456 -2.681,-7.854 -4.051,-11.967 -1.954,-5.867 -1.561,-13.138 2.066,-18.273 3.183,-4.506 7.943,-6.733 13.447,-5.927 5.177,0.756 8.118,6.207 8.201,11.113 C 1.542,0.44 0.435,0.646 0,0"
         style="fill:#f01d36;fill-opacity:1;fill-rule:nonzero;stroke:none"
         id="path3476"
         inkscape:connector-curvature="0" /></g><g
       id="g3478"
       transform="translate(269.3828,251.8271)"><path
         d="m 0,0 c -1.693,-4.971 -5.985,-8.702 -6.808,-14.039 -0.638,-4.143 0.639,-9.706 5.564,-9.248 -0.026,0.007 -0.052,0.006 -0.077,0.013 -3.022,0.866 -4.216,4.244 -3.568,7.087 0.633,2.774 2.866,3.775 4.641,5.684 1.419,1.526 2.321,3.432 2.906,5.415 2.452,8.319 0.234,19.002 -5.354,25.633 -0.246,0.292 -0.554,0.321 -0.815,0.207 -0.117,0.029 -0.244,0.036 -0.385,0.004 -0.615,-0.14 -1.126,-0.501 -1.61,-0.916 C -1.595,13.864 2.51,7.365 0,0"
         style="fill:#ee5254;fill-opacity:1;fill-rule:nonzero;stroke:none"
         id="path3480"
         inkscape:connector-curvature="0" /></g><g
       id="g3482"
       transform="translate(272.1084,243.7891)"><path
         d="m 0,0 c 1.872,1.432 6.417,4.025 4.81,7.062 -1.701,3.213 -5.391,2.956 -8.314,1.679 v 9.074 c 2.203,0.883 4.14,3.516 5.854,4.754 1.781,1.286 3.797,2.015 5.992,2.217 9.7,0.894 14.78,-8.29 11.987,-16.883 -1.558,-4.796 -4.975,-8.59 -8.851,-11.644 -1.815,-1.431 -6.06,-4.155 -5.818,-6.776 0.497,-3.544 1.908,-5.176 4.37,-3.655 0.899,0.682 1.616,1.507 2.154,2.476 0.613,0.861 1.126,1.74 1.79,2.568 0.367,0.458 1.279,0.222 1.37,-0.362 0.978,-6.276 -3.692,-11.998 -10.242,-12.364 -7.88,-0.441 -10.618,6.955 -9.813,13.452 C -4.271,-4.851 -2.854,-2.183 0,0"
         style="fill:#ee5254;fill-opacity:1;fill-rule:nonzero;stroke:none"
         id="path3484"
         inkscape:connector-curvature="0" /></g><g
       id="g3486"
       transform="translate(272.1084,243.7891)"><path
         d="m 0,0 c 1.872,1.432 6.417,4.025 4.81,7.062 -1.189,2.247 -3.354,2.793 -5.547,2.485 1.743,1.337 5,1.078 6.499,-0.365 1.975,-1.902 1.65,-5.327 0.425,-7.473 -1.574,-2.756 -4.91,-4.23 -6.826,-6.743 -2.857,-3.749 -2.953,-9.759 -0.411,-13.722 0.957,-1.491 2.384,-2.447 4.01,-2.992 -6.223,0.905 -8.397,7.481 -7.671,13.346 C -4.271,-4.851 -2.854,-2.183 0,0"
         style="fill:#f01d36;fill-opacity:1;fill-rule:nonzero;stroke:none"
         id="path3488"
         inkscape:connector-curvature="0" /></g><g
       id="g3490"
       transform="translate(251.4746,234.71)"><path
         d="m 0,0 c -1.998,6.227 1.128,11.479 4.881,16.157 3.13,3.9 6.427,10.715 2.615,15.095 C 7.444,31.4 7.342,31.521 7.183,31.603 7.135,31.651 7.1,31.704 7.05,31.751 c -0.323,0.31 -0.711,0.27 -1,0.077 -3.113,0.423 -7.24,0.374 -10.022,-0.546 -0.338,-0.112 -0.611,-0.419 -0.602,-0.791 0.162,-6.345 -3.623,-9.983 -7.104,-14.758 -2.348,-3.219 -3.362,-6.732 -3.077,-10.719 0.247,-3.479 1.003,-7.599 3.274,-10.37 1.733,-2.116 4.669,-3.288 5.501,-6.114 1.762,-5.987 -6.037,-7.717 -9.248,-3.445 -0.455,0.607 -1.537,0.473 -1.527,-0.413 0.15,-13.905 24.638,-8.286 21.501,5.211 C 3.889,-6.423 1.146,-3.57 0,0"
         style="fill:#f01d36;fill-opacity:1;fill-rule:nonzero;stroke:none"
         id="path3492"
         inkscape:connector-curvature="0" /></g><g
       id="g3494"
       transform="translate(239.9932,229.3535)"><path
         d="m 0,0 c 1.734,-2.115 4.67,-3.287 5.501,-6.113 1.431,-4.862 -3.442,-6.916 -7.043,-5.23 1.155,-1.771 2.673,-3.212 4.884,-3.375 4.731,-0.347 5.995,3.822 5.036,7.392 C 7.059,-2.417 2.498,0.952 1.269,6.04 -0.001,11.301 1.724,16.048 4.317,20.6 7.569,26.307 9.743,30.898 10.281,37.229 9.282,37.099 8.333,36.911 7.509,36.638 7.172,36.527 6.898,36.219 6.907,35.848 7.07,29.503 3.285,25.864 -0.197,21.09 -2.544,17.87 -3.558,14.357 -3.274,10.37 -3.026,6.892 -2.271,2.771 0,0"
         style="fill:#ee5254;fill-opacity:1;fill-rule:nonzero;stroke:none"
         id="path3496"
         inkscape:connector-curvature="0" /></g><g
       id="g3498"
       transform="translate(207.5229,247.9619)"><path
         d="m 0,0 c -3.131,-3.778 -4.446,-9.831 -1.009,-13.775 3.654,-4.195 8.717,-5.603 14.067,-4.254 6.095,1.537 11.127,6.8 13.463,12.526 1.637,4.015 2.082,8.11 4.714,11.722 2.306,3.164 5.348,5.345 7.918,8.22 0.582,0.651 -0.166,1.474 -0.84,1.305 -1.294,1.309 -0.501,3.699 -1.621,5.208 -0.087,0.117 -0.188,0.194 -0.295,0.249 -0.125,0.256 -0.376,0.434 -0.753,0.373 C 27.085,20.177 18.447,13.512 14.894,5.6 14.046,3.713 13.491,1.681 13.575,-0.402 13.679,-3.008 14.722,-5.221 13.397,-7.737 12.039,-10.318 8.933,-12.105 6.075,-10.796 2.419,-9.12 0.998,-4.334 1.429,-0.681 1.521,0.093 0.545,0.657 0,0"
         style="fill:#f01d36;fill-opacity:1;fill-rule:nonzero;stroke:none"
         id="path3500"
         inkscape:connector-curvature="0" /></g><g
       id="g3502"
       transform="translate(227.7456,255.6943)"><path
         d="m 0,0 c -1.95,-4.875 -1.121,-10.502 -3.971,-15.089 -2.212,-3.559 -6.803,-6.952 -10.243,-3.398 0.024,-0.012 0.043,-0.03 0.067,-0.041 2.857,-1.31 5.963,0.477 7.322,3.058 1.325,2.517 0.282,4.73 0.177,7.335 -0.084,2.083 0.471,4.116 1.319,6.003 3.553,7.912 12.192,14.576 20.749,15.973 0.378,0.062 0.63,-0.116 0.754,-0.373 0.107,-0.054 0.209,-0.132 0.295,-0.248 0.375,-0.506 0.53,-1.114 0.626,-1.743 C 10.235,9.486 2.889,7.224 0,0"
         style="fill:#ee5254;fill-opacity:1;fill-rule:nonzero;stroke:none"
         id="path3504"
         inkscape:connector-curvature="0" /></g><g
       id="g3506"
       transform="translate(296.2861,247.8496)"><path
         d="m 0,0 c -0.628,0.831 -2.053,0.015 -1.416,-0.828 0.05,-0.067 0.091,-0.144 0.139,-0.214 -0.027,-0.044 -0.062,-0.076 -0.082,-0.127 -1.063,-2.704 -4.596,-4.398 -5.781,-0.232 -0.186,0.656 0.093,1.995 0.157,2.566 0.283,2.551 0.96,4.982 2.149,7.269 1.503,2.891 3.48,5.339 3.888,8.67 0.574,4.694 -1.112,9.299 -6.286,9.785 -5.406,0.507 -7.852,-2.699 -11.2,-6.202 -1.255,-1.313 -2.891,-2.993 -4.953,-2.59 -2.7,0.527 -3.678,3.639 -3.6,5.989 0.114,3.449 1.779,6.865 3.629,9.704 0.23,0.353 0.137,0.691 -0.087,0.92 -0.045,0.074 -0.096,0.146 -0.18,0.212 -1.137,0.883 -2.361,1.02 -3.77,1.079 -2.93,0.124 -5.911,0.166 -8.844,0.151 -4.552,-0.023 -10.4,0.121 -14.529,-2.155 -0.932,-0.515 -1.691,-1.051 -2.113,-2.038 -0.287,-0.67 -0.077,-1.912 -0.124,-2.581 -0.217,-3.067 -1.794,-5.633 -5.064,-6.061 -2.993,-0.392 -5.531,3.453 -7.712,5.029 -1.781,1.286 -3.797,2.014 -5.991,2.216 -9.701,0.894 -14.781,-8.29 -11.988,-16.883 1.558,-4.795 4.976,-8.589 8.851,-11.644 1.815,-1.431 6.06,-4.155 5.818,-6.775 -0.497,-3.544 -1.908,-5.177 -4.37,-3.656 -0.899,0.681 -1.617,1.506 -2.153,2.476 -0.614,0.861 -1.127,1.739 -1.79,2.568 -0.368,0.457 -1.28,0.221 -1.371,-0.362 -0.978,-6.276 3.691,-11.998 10.242,-12.364 7.88,-0.441 10.617,6.955 9.813,13.452 -0.439,3.551 -1.857,6.219 -4.711,8.402 -1.872,1.432 -6.417,4.026 -4.81,7.063 2.167,4.095 7.575,2.559 10.493,0.45 3.232,-2.338 5.506,-4.289 9.79,-3.776 2.188,0.262 3.61,0.862 4.749,1.861 0.508,-3.044 2.166,-5.663 6.109,-7.318 4.202,-1.763 8.374,-0.486 12.316,1.363 2.278,1.069 4.259,2.336 6.088,4.056 1.243,1.169 5.278,6.398 6.89,0.478 C -11.465,8.71 -12.525,6.49 -12.847,5.307 -14.55,-0.957 -13.934,-9.724 -6.135,-11.158 0.316,-12.346 3.746,-4.958 0,0"
         style="fill:#fd5d5f;fill-opacity:1;fill-rule:nonzero;stroke:none"
         id="path3508"
         inkscape:connector-curvature="0" /></g><g
       id="g3510"
       transform="translate(232.8569,253.626)"><path
         d="m 0,0 c -1.872,1.432 -6.417,4.025 -4.81,7.062 1.189,2.247 3.354,2.793 5.547,2.485 -1.742,1.337 -4.999,1.078 -6.498,-0.365 -1.976,-1.902 -1.651,-5.327 -0.425,-7.473 1.573,-2.756 4.909,-4.23 6.825,-6.743 2.857,-3.749 2.953,-9.759 0.411,-13.723 -0.957,-1.49 -2.383,-2.447 -4.009,-2.991 6.222,0.905 8.396,7.481 7.67,13.346 C 4.272,-4.852 2.854,-2.183 0,0"
         style="fill:#ff243e;fill-opacity:1;fill-rule:nonzero;stroke:none"
         id="path3512"
         inkscape:connector-curvature="0" /></g><g
       id="g3514"
       transform="translate(297.8164,242.7803)"><path
         d="m 0,0 c -0.511,0.523 -1.435,0.42 -3.039,-1.07 -0.561,-0.52 -0.737,-1.403 -1.373,-1.926 -4.005,-3.299 -9.049,0.373 -9.543,4.713 -0.327,2.881 0.434,5.541 1.399,8.214 0.422,1.171 1.002,2.323 1.194,3.56 0.41,2.649 0.84,3.78 -1.481,5.356 -1.416,1.758 -3.67,1.265 -5.578,-0.088 -0.489,-0.384 -0.978,-0.769 -1.468,-1.155 -0.673,-0.614 -1.255,-1.342 -1.872,-2.01 -3.273,-3.547 -6.723,-5.852 -10.698,-7.15 2.091,0.322 4.148,1.107 6.147,2.045 2.278,1.069 4.258,2.335 6.087,4.055 1.244,1.169 5.279,6.398 6.891,0.478 0.339,-1.243 -0.722,-3.462 -1.043,-4.646 C -16.08,4.112 -15.464,-4.654 -7.665,-6.089 -3.248,-6.901 -0.25,-3.694 0,0"
         style="fill:#ff243e;fill-opacity:1;fill-rule:nonzero;stroke:none"
         id="path3516"
         inkscape:connector-curvature="0" /></g><g
       id="g3518"
       transform="translate(285.3203,302.4805)"><path
         d="m 0,0 c 0.438,3.36 0.871,6.977 0.204,10.328 -0.747,3.746 -2.304,7.15 -4.434,10.309 -3.893,5.774 -10.833,9.13 -17.675,8.19 -7.246,0.678 -13.852,-1.972 -19.149,-6.953 -3.319,-3.122 -5.5,-6.454 -6.514,-10.942 -0.684,-3.023 -0.841,-6.278 -0.881,-9.369 -0.105,-8.037 1.815,-15.074 6.418,-21.725 1.886,-2.725 4.183,-5.455 6.642,-7.677 3.151,-2.847 7.224,-3.88 11.368,-3.8 3.495,0.068 6.832,1.719 9.361,4.072 2.489,2.316 5.035,4.623 7.28,7.181 2.193,2.499 4.171,5.506 5.182,8.688 C -0.989,-7.893 -0.515,-3.942 0,0"
         style="fill:#fd5d5f;fill-opacity:1;fill-rule:nonzero;stroke:none"
         id="path3520"
         inkscape:connector-curvature="0" /></g><g
       id="g3522"
       transform="translate(279.582,276.1846)"><path
         d="m 0,0 c -0.96,1.61 -2.78,2.173 -3.143,4.165 -0.418,2.298 0.108,4.648 1.19,6.686 0.302,0.567 0.187,1.069 -0.124,1.426 -0.216,0.79 -0.976,1.407 -1.913,0.936 -3.864,-1.94 -7.428,-4.152 -10.933,-6.682 -2.559,-1.847 -4.887,-4.043 -7.323,-6.053 -1.847,2.604 -3.53,5.368 -5.536,7.85 -2.717,3.361 -5.575,6.433 -8.793,9.318 -0.781,0.701 -1.676,0.306 -2.092,-0.399 -0.395,-0.263 -0.637,-0.717 -0.495,-1.344 0.51,-2.25 0.398,-4.656 -0.609,-6.764 -0.872,-1.826 -2.776,-1.891 -4.125,-3.193 -1.939,-1.871 -1.992,-5.24 0.7,-6.365 1.188,-0.498 2.519,-0.516 3.783,-0.556 2.142,-0.068 4.287,-0.175 6.389,-0.624 2.709,-0.578 5.102,-2.079 7.676,-2.953 0.097,-0.064 0.207,-0.121 0.332,-0.167 4.206,-1.535 8.303,0.531 12.543,0.295 2.147,-0.119 4.244,-0.579 6.328,-1.076 1.232,-0.294 2.521,-0.625 3.797,-0.458 C 0.546,-5.58 1.379,-2.314 0,0"
         style="fill:#fd5d5f;fill-opacity:1;fill-rule:nonzero;stroke:none"
         id="path3524"
         inkscape:connector-curvature="0" /></g><g
       id="g3526"
       transform="translate(238.9116,282.5918)"><path
         d="M 0,0 C -4.86,0.65 -5.878,-6.903 -1.01,-7.554 3.851,-8.204 4.869,-0.651 0,0"
         style="fill:#f2f2f2;fill-opacity:1;fill-rule:nonzero;stroke:none"
         id="path3528"
         inkscape:connector-curvature="0" /></g><g
       id="g3530"
       transform="translate(239.374,281.6572)"><path
         d="M 0,0 C -3.048,0.407 -3.687,-4.329 -0.633,-4.737 2.415,-5.145 3.053,-0.408 0,0"
         style="fill:#012a48;fill-opacity:1;fill-rule:nonzero;stroke:none"
         id="path3532"
         inkscape:connector-curvature="0" /></g><g
       id="g3534"
       transform="translate(276.5908,277.4771)"><path
         d="M 0,0 C 4.86,-0.65 3.858,-8.205 -1.01,-7.554 -5.871,-6.904 -4.869,0.651 0,0"
         style="fill:#f2f2f2;fill-opacity:1;fill-rule:nonzero;stroke:none"
         id="path3536"
         inkscape:connector-curvature="0" /></g><g
       id="g3538"
       transform="translate(275.8984,276.6963)"><path
         d="M 0,0 C 3.049,-0.407 2.42,-5.145 -0.633,-4.737 -3.681,-4.33 -3.053,0.408 0,0"
         style="fill:#012a48;fill-opacity:1;fill-rule:nonzero;stroke:none"
         id="path3540"
         inkscape:connector-curvature="0" /></g><g
       id="g3542"
       transform="translate(258.7012,254.4106)"><path
         d="M 0,0 C 1.383,2.565 2.312,5.519 1.854,8.17 1.527,5.403 0.968,2.68 0,0"
         style="fill:#fd5d5f;fill-opacity:1;fill-rule:nonzero;stroke:none"
         id="path3544"
         inkscape:connector-curvature="0" /></g><g
       id="g3546"
       transform="translate(275.7559,322.9219)"><path
         d="M 0,0 C -0.297,0.14 -0.579,0.057 -0.772,-0.119 -0.82,-0.131 -0.866,-0.133 -0.916,-0.158 -2.876,-1.135 -0.13,-4.004 0.862,-4.612 1.622,-5.078 2.685,-4.983 2.726,-3.893 2.786,-2.28 1.373,-0.646 0,0"
         style="fill:#ff243e;fill-opacity:1;fill-rule:nonzero;stroke:none"
         id="path3548"
         inkscape:connector-curvature="0" /></g><g
       id="g3550"
       transform="translate(281.2441,316.48)"><path
         d="m 0,0 c -0.31,0.261 -0.847,0.28 -1.058,-0.136 -0.014,-0.031 -0.02,-0.061 -0.035,-0.091 -0.114,-0.077 -0.214,-0.183 -0.264,-0.349 -0.302,-0.975 0.052,-2.369 1.107,-2.706 0.356,-0.114 0.721,0.135 0.828,0.469 C 0.881,-1.869 0.804,-0.677 0,0"
         style="fill:#ff243e;fill-opacity:1;fill-rule:nonzero;stroke:none"
         id="path3552"
         inkscape:connector-curvature="0" /></g><g
       id="g3554"
       transform="translate(277.7236,315.2627)"><path
         d="m 0,0 c -0.765,0.924 -1.749,1.973 -3.066,1.54 -1.257,-0.414 -1.538,-1.233 -1.326,-2.118 -0.007,-1.687 1.389,-3.74 2.565,-4.816 0.578,-0.528 1.37,-1.024 2.183,-0.764 0.961,0.307 1.377,1.465 1.355,2.381 C 1.678,-2.36 0.878,-1.059 0,0"
         style="fill:#ff243e;fill-opacity:1;fill-rule:nonzero;stroke:none"
         id="path3556"
         inkscape:connector-curvature="0" /></g></g></svg>